<?xml version="1.0" standalone="no"?>
<!DOCTYPE svg PUBLIC "-//W3C//DTD SVG 20010904//EN"
 "http://www.w3.org/TR/2001/REC-SVG-20010904/DTD/svg10.dtd">
<svg version="1.0" xmlns="http://www.w3.org/2000/svg"
 width="150.000000pt" height="150.000000pt" viewBox="0 0 150.000000 150.000000"
 preserveAspectRatio="xMidYMid meet">
<metadata>
Created by potrace 1.14, written by Peter Selinger 2001-2017
</metadata>
<g transform="translate(0.000000,150.000000) scale(0.100000,-0.100000)"
fill="#000000" stroke="none">
<path d="M533 1478 c-12 -13 -26 -34 -32 -48 -6 -14 -21 -38 -33 -53 -20 -25
-23 -41 -25 -125 0 -53 -7 -109 -14 -124 -10 -23 -10 -42 0 -98 7 -39 18 -76
25 -83 7 -6 18 -39 25 -72 15 -67 39 -119 74 -161 16 -19 27 -48 32 -84 13
-99 49 -157 76 -123 12 15 12 16 -4 10 -12 -5 -16 -3 -11 4 4 7 7 21 8 33 1
18 9 22 51 27 61 8 119 37 123 64 3 16 1 17 -11 7 -47 -39 -173 -18 -212 35
-11 15 -28 35 -37 45 -10 10 -15 18 -11 18 3 0 -3 8 -14 18 -28 24 -40 51 -41
89 0 17 -5 40 -10 50 -5 10 -12 61 -15 113 -3 52 -3 83 0 68 4 -26 23 -40 23
-18 0 18 19 10 25 -10 5 -15 12 -19 26 -15 11 4 19 2 19 -4 0 -6 5 -11 11 -11
5 0 8 4 4 9 -6 11 31 9 58 -3 9 -5 17 -16 18 -25 0 -9 10 4 21 28 16 35 17 45
7 52 -7 4 -17 5 -21 3 -4 -3 -8 4 -8 15 0 26 -31 47 -92 63 l-50 12 7 40 c7
49 39 92 95 131 36 25 53 29 123 33 75 3 87 1 137 -25 47 -24 57 -34 67 -68 7
-22 21 -70 33 -106 28 -90 26 -105 -10 -118 -41 -14 -38 -25 5 -18 30 5 35 3
35 -13 0 -12 5 -17 14 -14 8 3 11 15 8 31 -4 19 2 31 24 48 28 23 29 25 28
117 0 87 -3 98 -37 165 -56 109 -65 113 -216 112 -69 -1 -118 -3 -108 -6 14
-4 16 -8 6 -19 -10 -13 -14 -12 -30 2 -12 11 -42 18 -81 21 -56 4 -66 2 -85
-19z m29 -10 c-7 -7 -12 -8 -12 -2 0 14 12 26 19 19 2 -3 -1 -11 -7 -17z m88
-394 c0 -1 -13 2 -30 7 -16 6 -27 15 -24 20 4 7 54 -17 54 -27z"/>
<path d="M790 1140 c-22 -13 -11 -18 50 -20 74 -3 81 -1 40 15 -42 16 -70 18
-90 5z"/>
<path d="M788 1103 c7 -3 16 -2 19 1 4 3 -2 6 -13 5 -11 0 -14 -3 -6 -6z"/>
<path d="M790 1070 c-18 -12 -3 -42 23 -46 9 -1 15 1 12 6 -6 10 33 23 60 20
l20 -2 -20 16 c-23 17 -72 21 -95 6z"/>
<path d="M730 1055 c0 -16 16 -20 24 -6 3 5 -1 11 -9 15 -9 3 -15 0 -15 -9z"/>
<path d="M632 949 c-13 -10 -22 -26 -20 -36 3 -16 51 -36 62 -25 8 8 -14 32
-30 32 -20 0 -17 17 3 29 10 5 16 12 13 14 -3 3 -15 -3 -28 -14z"/>
<path d="M580 852 c0 -2 12 -24 28 -48 31 -50 55 -61 88 -43 28 14 32 33 7 25
-11 -3 -30 4 -48 19 l-30 24 55 -6 c39 -4 52 -2 45 5 -10 10 -145 33 -145 24z"/>
<path d="M810 830 c0 -5 5 -10 10 -10 6 0 10 5 10 10 0 6 -4 10 -10 10 -5 0
-10 -4 -10 -10z"/>
<path d="M908 715 c-25 -34 -22 -38 7 -9 26 26 30 34 18 34 -5 0 -16 -11 -25
-25z"/>
<path d="M990 685 c0 -8 -20 -40 -45 -71 -79 -96 -246 -355 -296 -458 -50
-101 -56 -104 -40 -19 6 26 15 75 22 108 8 43 19 66 40 86 l29 27 -27 48 c-15
27 -38 60 -51 74 l-24 25 -19 -24 c-10 -13 -19 -31 -19 -42 0 -10 -5 -21 -12
-25 -8 -5 -9 -2 -4 12 5 10 10 36 13 57 l6 37 -44 -19 c-229 -99 -234 -107
-278 -346 -11 -55 -22 -113 -26 -128 l-7 -28 113 3 113 3 12 75 c15 92 40 175
65 216 10 17 16 39 13 51 -3 12 -2 29 4 39 19 34 24 -21 7 -84 -8 -33 -24
-103 -35 -155 -10 -53 -22 -107 -26 -121 l-6 -26 516 0 516 0 0 80 c0 111 -24
170 -97 241 -60 58 -144 119 -248 182 -65 38 -88 65 -129 145 -27 54 -36 63
-36 37z m-365 -315 c10 -11 14 -20 9 -20 -5 0 -15 9 -22 20 -7 11 -11 20 -9
20 2 0 12 -9 22 -20z m-15 -70 c-20 -13 -33 -13 -25 0 3 6 14 10 23 10 15 0
15 -2 2 -10z"/>
<path d="M531 364 c0 -11 3 -14 6 -6 3 7 2 16 -1 19 -3 4 -6 -2 -5 -13z"/>
</g>
</svg>
