<?xml version="1.0" standalone="no"?>
<!DOCTYPE svg PUBLIC "-//W3C//DTD SVG 20010904//EN"
 "http://www.w3.org/TR/2001/REC-SVG-20010904/DTD/svg10.dtd">
<svg version="1.0" xmlns="http://www.w3.org/2000/svg"
 width="296.000000pt" height="296.000000pt" viewBox="0 0 296.000000 296.000000"
 preserveAspectRatio="xMidYMid meet">
<metadata>
Created by potrace 1.14, written by Peter Selinger 2001-2017
</metadata>
<g transform="translate(0.000000,296.000000) scale(0.100000,-0.100000)"
fill="#000000" stroke="none">
<path d="M1325 2582 c-2 -3 -23 -5 -47 -7 -91 -5 -292 -41 -358 -64 -14 -5
-59 -20 -100 -32 -41 -13 -77 -26 -80 -29 -3 -3 -11 -6 -19 -8 -8 -2 -29 -9
-47 -17 -29 -12 -33 -18 -30 -44 2 -17 1 -33 -3 -36 -11 -11 -9 -755 2 -778
l10 -22 827 1 c455 1 832 4 838 8 12 7 13 702 2 768 -4 22 -3 41 3 47 8 8 8
11 -1 11 -6 0 -9 6 -6 14 4 9 -5 20 -23 30 -40 20 -143 57 -172 61 -13 2 -27
8 -30 13 -3 5 -14 8 -23 7 -9 -2 -29 3 -44 11 -15 8 -29 12 -31 10 -3 -2 -19
0 -36 5 -18 5 -45 12 -62 15 -16 2 -37 7 -45 9 -17 5 -84 14 -155 21 -65 7
-365 11 -370 6z"/>
<path d="M36 1663 c10 -16 32 -50 48 -78 17 -27 37 -56 43 -63 15 -15 15 -15
-55 -122 -45 -68 -48 -75 -30 -80 10 -3 90 -5 177 -4 l158 1 -1 -98 c-2 -99 3
-115 39 -135 31 -17 2112 -13 2143 4 25 15 24 7 26 132 l2 95 164 2 c206 1
208 2 194 11 -6 4 -33 41 -60 82 -26 41 -51 77 -56 78 -8 4 21 64 35 70 4 2 7
10 7 17 0 8 6 20 13 27 17 17 57 75 57 81 0 10 -534 4 -560 -5 -73 -27 -42
-88 55 -107 93 -19 122 -30 138 -54 18 -27 5 -51 -34 -65 -30 -11 -2095 -9
-2126 2 -13 4 -26 19 -29 33 -10 37 18 56 114 77 96 21 124 38 120 74 -5 45
-43 51 -337 51 l-263 1 18 -27z"/>
<path d="M810 954 c0 -8 4 -14 8 -14 4 0 15 -13 25 -29 32 -55 142 -171 227
-241 30 -25 57 -48 58 -52 2 -5 10 -8 18 -8 8 0 17 -7 20 -15 4 -8 10 -12 15
-9 5 3 9 2 9 -3 0 -4 21 -21 48 -38 26 -16 50 -34 54 -40 4 -5 8 -6 8 -2 0 4
19 -5 43 -21 23 -16 52 -32 65 -36 12 -4 22 -12 22 -17 0 -5 8 -9 18 -9 10 0
23 -5 29 -11 7 -7 15 -6 26 5 9 9 20 16 26 16 6 0 35 16 65 35 30 19 58 35 61
35 12 0 159 104 224 157 85 72 231 222 231 239 0 3 12 21 26 39 l26 34 -676 0
c-578 -1 -676 -3 -676 -15z"/>
</g>
</svg>
